<svg width="54" height="36" viewBox="0 0 54 36" fill="none" xmlns="http://www.w3.org/2000/svg">
<path d="M20.528 13.6H12.4C9.62667 13.6 7.568 14.2507 6.224 15.552C4.88 16.832 4.208 18.8267 4.208 21.536V28.064C4.208 30.7733 4.88 32.7787 6.224 34.08C7.568 35.36 9.62667 36 12.4 36H20.528V31.936H18.416V17.632H20.528V13.6ZM12.4 31.968C10.928 31.968 9.904 31.6267 9.328 30.944C8.73067 30.24 8.432 29.152 8.432 27.68V21.536C8.432 20.256 8.73067 19.2853 9.328 18.624C9.904 17.9627 10.928 17.632 12.4 17.632H14.192V31.968H12.4Z" fill="#003476"/>
<circle cx="16.5" cy="10.5" r="2.5" fill="#ED1B2F"/>
<path d="M31.6 31.2H23.984L22.896 36H18.48L23.824 13.6H31.76L37.104 36H32.688L31.6 31.2ZM24.88 27.168H30.672L28.08 15.712H27.504L24.88 27.168Z" fill="#FDB515"/>
<rect x="36" y="13.5" width="3.68421" height="22.5" fill="#9C0000"/>
<rect x="36.9211" y="31.9091" width="16.5789" height="4.09091" fill="#9C0000"/>
<path d="M40.0441 30.1697C39.9307 30.4215 40.0429 30.7175 40.2947 30.8309C40.5465 30.9443 40.8425 30.8321 40.9559 30.5803L40.0441 30.1697ZM47.42 23.7901L47.1987 24.2384L47.42 23.7901ZM48.7652 23.3237L48.3139 23.1085L48.7652 23.3237ZM40.9559 30.5803L44.2148 23.3431L43.3029 22.9325L40.0441 30.1697L40.9559 30.5803ZM44.8919 23.1L47.1987 24.2384L47.6413 23.3417L45.3345 22.2033L44.8919 23.1ZM49.2165 23.5389L52.925 15.7606L52.0224 15.3303L48.3139 23.1085L49.2165 23.5389ZM47.1987 24.2384C47.9487 24.6086 48.8566 24.2938 49.2165 23.5389L48.3139 23.1085C48.1939 23.3601 47.8913 23.4651 47.6413 23.3417L47.1987 24.2384ZM44.2148 23.3431C44.331 23.085 44.6381 22.9748 44.8919 23.1L45.3345 22.2033C44.573 21.8275 43.6516 22.1582 43.3029 22.9325L44.2148 23.3431Z" fill="#ED1B2F"/>
<path d="M48.5638 23.1083C48.5044 23.2329 48.5573 23.3822 48.6819 23.4416C48.8065 23.501 48.9557 23.4481 49.0151 23.3235L48.5638 23.1083ZM52.9342 14.5227L50.5554 16.1582L53.1612 17.4005L52.9342 14.5227ZM49.0151 23.3235L52.1915 16.6613L51.7402 16.4461L48.5638 23.1083L49.0151 23.3235Z" fill="#ED1B2F"/>
</svg>
